<!--<svg width="1024" height="1024" xmlns="http://www.w3.org/2000/svg">-->
    <!--<g>-->
        <!--<path id="svg_1" fill="#d81e06" d="m511.805,63.921c-247.423,0 -447.999,200.576 -447.999,448s200.576,448 447.999,448c247.424,0 448.001,-200.576 448.001,-448c0,-247.423 -200.577,-448 -448.001,-448zm0,856c-225.332,0 -407.999,-182.668 -407.999,-408s182.667,-408 407.999,-408c225.332,0 408.001,182.667 408.001,408s-182.669,408 -408.001,408z"/>-->
        <!--<path id="svg_2" fill="#d81e06" d="m531.625,639.965l22.142,-448.181l-84.014,0l22.122,448.181l39.75,0z"/>-->
        <!--<path id="svg_3" fill="#d81e06" d="m512.091,771.576m-59.997,0a59.997,59.997 0 1 0 119.994,0a59.997,59.997 0 1 0 -119.994,0z"/>-->
    <!--</g>-->
<!--</svg>-->
<svg width="1024" height="1024" xmlns="http://www.w3.org/2000/svg" >
    <g>
        <path fill="#e4393c" d="m512,0c-282.77029,0 -512,229.22971 -512,512c0,282.77029 229.22971,512 512,512s512,-229.22971 512,-512c0,-282.77029 -229.22971,-512 -512,-512zm219.42857,668.672l-62.75657,62.75657l-156.672,-156.74514l-156.74514,156.74514l-62.68343,-62.75657l156.672,-156.672l-156.672,-156.74514l62.68343,-62.68343l156.74514,156.74514l156.672,-156.74514l62.75657,62.68343l-156.74514,156.74514l156.74514,156.672z"/>
    </g>
</svg>
