<svg width="1227" height="1024" xmlns="http://www.w3.org/2000/svg" class="icon">
 <g>
    <path id="svg_1" fill="#e4393c" d="m978.21142,385.09125l-129.66189,-82.42425c-18.74276,-11.8753 -28.97807,-32.22877 -28.97807,-52.83117c0,-1.87428 0.23428,-3.83641 0.36607,-5.7839l-486.57983,0c-49.15584,0 -94.44598,39.90159 -100.74238,88.61815l-77.60677,602.71177c-6.22319,48.70191 28.87557,88.61815 77.92891,88.61815l738.21613,0c49.12656,0 84.18139,-39.91624 77.92892,-88.61815l-70.87109,-550.2906zm-203.53475,-82.23389c13.57387,0 24.5706,11.02602 24.5706,24.54131c0,13.57386 -10.99673,24.59988 -24.5706,24.59988c-13.54458,0 -24.57059,-11.02602 -24.57059,-24.59988c-0.00001,-13.51529 11.02601,-24.54131 24.57059,-24.54131zm-332.6402,0c13.58851,0 24.5706,11.02602 24.5706,24.54131c0,13.57386 -10.98209,24.59988 -24.5706,24.59988c-13.54458,0 -24.51203,-11.02602 -24.51203,-24.59988c-0.01464,-13.51529 10.95281,-24.54131 24.51203,-24.54131zm354.9851,322.58061l-75.33715,71.94001c-1.88892,1.36178 -5.28604,9.15174 -4.97854,13.2078c0,0.71749 0.08785,1.27392 0.14642,1.62535l18.62563,102.55808c0.33678,1.87428 0.55643,3.80712 0.55643,5.79854c0,4.72962 -1.20071,10.29388 -5.19819,15.09672c-3.9682,4.90533 -10.64531,7.45318 -15.98993,7.32139c-5.13962,-0.05857 -9.4446,-1.56678 -13.29565,-3.63141l-91.70778,-49.39012c-1.09821,-0.65893 -4.49533,-1.56678 -7.77532,-1.52285c-3.35319,-0.07322 -6.79425,0.86392 -7.83389,1.52285l-91.73706,49.39012c-3.89498,2.06463 -8.15603,3.57284 -13.29565,3.63141c-0.16107,0 -0.29286,0 -0.5125,0c-5.21283,0 -11.65566,-2.54784 -15.52136,-7.32139c-3.99748,-4.80284 -5.18354,-10.3671 -5.18354,-15.09672c0,-2.06463 0.23428,-3.98283 0.57107,-5.85711l18.61098,-102.48487c0.05857,-0.3075 0.11714,-0.9225 0.11714,-1.62535c0.3075,-4.05605 -3.03106,-11.88994 -4.97855,-13.2078l-75.23464,-71.94001c-4.45141,-4.29034 -8.5221,-9.94245 -8.71246,-18.24491c-0.16107,-6.23783 3.38249,-12.70994 7.83389,-16.06314c4.39284,-3.51427 9.1371,-4.90534 13.80815,-5.5789l103.21701,-13.99851c1.25928,-0.05857 4.50998,-1.27392 7.20425,-3.33855c2.7382,-1.9475 4.90534,-4.67105 5.38855,-5.81319l45.20228,-93.81634c1.69857,-3.58748 3.93891,-6.9114 7.3214,-9.82531c3.32391,-2.82606 8.22924,-5.09569 13.67636,-5.09569c5.35926,0 10.27924,2.24035 13.58851,5.09569c3.38248,2.91391 5.6814,6.23783 7.35068,9.82531l45.173,93.81634c0.46857,1.15678 2.69427,3.88034 5.41783,5.81319c2.75284,2.06463 5.94497,3.27998 7.20425,3.33855l103.23165,13.99851c4.64176,0.65892 9.38603,2.06463 13.79351,5.5789c4.42212,3.3532 7.96567,9.81067 7.78996,16.06314c-0.08786,8.30246 -4.20248,13.93993 -8.53674,18.23027zm324.98202,-353.49153l-180.88235,-114.97517c-20.73419,-13.14922 -48.46763,-6.98461 -61.61685,13.73493l-11.02602,17.35171c-18.61099,-12.72459 -35.80162,-17.62992 -50.62012,-17.62992c-12.94422,0.05857 -23.53096,3.5582 -31.7602,7.80461c-7.10176,-43.19623 -24.89274,-82.10211 -50.41512,-112.5884c-33.45877,-40.00409 -80.88676,-65.70219 -133.65937,-65.64361c-52.74332,-0.05858 -100.1713,25.63952 -133.65936,65.64361c-33.53198,40.12124 -53.84153,94.66562 -53.84153,154.59855l35.69912,0c-0.02929,-51.82082 17.68848,-98.41417 45.50978,-131.62402c27.93844,-33.22448 65.38005,-52.90439 106.29199,-52.90439c40.97052,0 78.35356,19.69455 106.32128,52.90439c27.79202,33.22449 45.52443,79.8032 45.46586,131.62402l35.75769,0c0,-7.62889 -0.35143,-15.21385 -1.01036,-22.66703c6.63319,-4.55391 16.50243,-9.32746 29.28558,-9.26889c11.01138,0 24.71702,3.63141 41.04373,14.84779l-14.54029,22.85739c-13.14922,20.73419 -6.99925,48.48227 13.74958,61.63149l180.85307,114.97517c20.73419,13.14922 48.49691,6.98461 61.64613,-13.74958l35.11341,-55.26188c13.20779,-20.76347 7.01389,-48.45298 -13.70565,-61.66077zm-220.49109,-67.34219c8.60996,0 15.57992,7.0139 15.57992,15.62386c0,8.66853 -6.99925,15.6385 -15.57992,15.6385c-8.63925,0 -15.6385,-6.98461 -15.6385,-15.6385c0,-8.59532 6.99925,-15.62386 15.6385,-15.62386z"/>
    </g>
</svg>
