<svg width="1024" height="1024" xmlns="http://www.w3.org/2000/svg" class="icon">
    <g>
        <path fill="#e02f2f"
              d="m860.3979,715.1007l-513.65878,0c-2.80488,0 -7.58986,-3.99704 -8.22227,-9.33562l-49.82273,-350.72388l-27.97514,-161.32013c-6.3005,-51.51118 -51.68311,-91.87754 -103.30788,-91.87754l-56.87433,0c-10.87673,0 -19.67409,8.79736 -19.67409,19.67408c0,10.8757 8.80248,19.67409 19.67409,19.67409l56.87433,0c32.08577,0 60.32902,25.19073 64.40382,58.2957l28.01199,161.68238l49.66719,349.70466c2.88367,24.03542 24.07737,43.57443 47.24604,43.57443l513.65878,0c10.87263,0 19.67409,-8.79736 19.67409,-19.67409c0,-10.87263 -8.80248,-19.67408 -19.67511,-19.67408l0,0zm0,0"/>
        <path fill="#e02f2f"
              d="m925.82093,203.00348c-8.41567,-9.53005 -19.50217,-14.56471 -32.02948,-14.56471l-530.50649,0c-10.87673,0 -19.67409,8.80248 -19.67409,19.67408c0,10.87672 8.79736,19.67409 19.67409,19.67409l530.50649,0c0.96088,0 1.45821,0.06242 2.53371,1.2689c2.63296,2.97782 4.9794,9.9936 4.26821,16.06386l-52.85786,302.78607c-0.78897,6.32199 -7.84057,12.12618 -16.12117,12.2193l-410.86358,30.30112c-10.83579,0.78897 -18.98437,10.22385 -18.17494,21.05759c0.74804,10.35484 9.39395,18.23327 19.59632,18.23327c0.48095,0 0.98135,-0.01637 1.46128,-0.05833l409.53737,-30.24176c26.86179,-0.15248 50.41727,-20.67284 53.46877,-45.72849l52.87833,-302.84235c2.11619,-17.54356 -3.14974,-35.89451 -13.69696,-47.84264l0,0zm0,0"/>
        <path fill="#e02f2f"
              d="m796.01966,815.7224c-29.286,0 -53.10857,23.82768 -53.10857,53.10447c0,29.26451 23.83894,53.0881 53.10857,53.0881c29.24814,0 53.07889,-23.82666 53.07889,-53.0881c0.00102,-29.27679 -23.81745,-53.10447 -53.07889,-53.10447l0,0zm0,0"/>
        <path fill="#e02f2f"
              d="m379.56985,815.7224c-29.2819,0 -53.10857,23.82768 -53.10857,53.10447c0,29.26451 23.83895,53.0881 53.10857,53.0881c29.24814,0 53.08299,-23.82666 53.08299,-53.0881c0.00102,-29.27679 -23.82155,-53.10447 -53.08299,-53.10447l0,0zm0,0"/>
    </g>
</svg>
